<svg xmlns="http://www.w3.org/2000/svg" viewBox="0 0 267.47 132" role="img" aria-label="igigi-swarm logo">
  <title>igigi-swarm</title>
  <desc>Horizontal igigi-swarm lockup: constellation mark left, wordmark right. Wordmark outlined.</desc>
  <g transform="translate(18,17) scale(0.95)"><g stroke="#D4A074" stroke-opacity="0.45" stroke-width="1.4" stroke-linecap="round">
    <line x1="60" y1="52" x2="34" y2="30"/><line x1="60" y1="52" x2="86" y2="30"/>
    <line x1="60" y1="52" x2="34" y2="74"/><line x1="60" y1="52" x2="86" y2="74"/>
    <line x1="34" y1="30" x2="86" y2="30"/><line x1="34" y1="74" x2="86" y2="74"/></g>
  <g fill="#D4A074">
    <path transform="translate(34,30) rotate(40) scale(0.72)" d="M0 0 L-16 -5.5 L-11 0 L-16 5.5 Z"/>
    <path transform="translate(86,30) rotate(140) scale(0.72)" d="M0 0 L-16 -5.5 L-11 0 L-16 5.5 Z"/>
    <path transform="translate(86,74) rotate(220) scale(0.72)" d="M0 0 L-16 -5.5 L-11 0 L-16 5.5 Z"/>
    <path transform="translate(34,74) rotate(-40) scale(0.72)" d="M0 0 L-16 -5.5 L-11 0 L-16 5.5 Z"/></g>
  <circle cx="60" cy="52" r="5" fill="#B87654"/></g>
  <path transform="translate(150,80)" d="M2.392 0.0V-26.68H8.41495654296875V0.0ZM2.392 -29.36533984375V-35.42H8.41495654296875V-29.36533984375Z M16.54444580078125 10.534V4.46504345703125H32.62578076171875Q32.85452294921875 4.46504345703125 33.018931396484376 4.3006350097656245Q33.18333984375 4.1362265625 33.18333984375 3.907484375V0.0H18.456590332031247Q16.722429332386362 0.0 15.277295166015623 -0.8659996948242188Q13.832160999644886 -1.7319993896484376 12.965080499822442 -3.1753322143554685Q12.097999999999999 -4.6186650390625 12.097999999999999 -6.32688671875V-20.35311328125Q12.097999999999999 -22.07322381591797 12.967962646484374 -23.50664926147461Q13.83792529296875 -24.94007470703125 15.28125811767578 -25.810037353515625Q16.72459094238281 -26.68 18.456590332031247 -26.68H32.879409667968744Q34.6493050441099 -26.68 36.08083806892995 -25.810037353515625Q37.51237109375 -24.94007470703125 38.359333740234376 -23.50664926147461Q39.20629638671875 -22.07322381591797 39.20629638671875 -20.35311328125V4.19281689453125Q39.20629638671875 5.960031858350409 38.365346494477365 7.389396902615907Q37.52439660223599 8.818761946881404 36.07901397494612 9.676380973440702Q34.63363134765625 10.534 32.879409667968744 10.534ZM18.678515625 -6.02295654296875H32.62578076171875Q32.85452294921875 -6.02295654296875 33.018931396484376 -6.187364990234375Q33.18333984375 -6.3517734374999995 33.18333984375 -6.580515625V-20.099484375Q33.18333984375 -20.3282265625 33.018931396484376 -20.492635009765625Q32.85452294921875 -20.65704345703125 32.62578076171875 -20.65704345703125H18.678515625Q18.4497734375 -20.65704345703125 18.285364990234374 -20.492635009765625Q18.12095654296875 -20.3282265625 18.12095654296875 -20.099484375V-6.580515625Q18.12095654296875 -6.3517734374999995 18.285364990234374 -6.187364990234375Q18.4497734375 -6.02295654296875 18.678515625 -6.02295654296875Z M44.022000000000006 0.0V-26.68H50.04495654296875V0.0ZM44.022000000000006 -29.36533984375V-35.42H50.04495654296875V-29.36533984375Z M58.17444580078125 10.534V4.46504345703125H74.25578076171875Q74.48452294921876 4.46504345703125 74.64893139648439 4.3006350097656245Q74.81333984375 4.1362265625 74.81333984375 3.907484375V0.0H60.08659033203125Q58.352429332386365 0.0 56.90729516601563 -0.8659996948242188Q55.46216099964489 -1.7319993896484376 54.595080499822444 -3.1753322143554685Q53.728 -4.6186650390625 53.728 -6.32688671875V-20.35311328125Q53.728 -22.07322381591797 54.597962646484376 -23.50664926147461Q55.46792529296875 -24.94007470703125 56.911258117675786 -25.810037353515625Q58.35459094238281 -26.68 60.08659033203125 -26.68H74.50940966796875Q76.2793050441099 -26.68 77.71083806892995 -25.810037353515625Q79.14237109375 -24.94007470703125 79.98933374023437 -23.50664926147461Q80.83629638671874 -22.07322381591797 80.83629638671874 -20.35311328125V4.19281689453125Q80.83629638671874 5.960031858350409 79.99534649447736 7.389396902615907Q79.15439660223599 8.818761946881404 77.70901397494612 9.676380973440702Q76.26363134765624 10.534 74.50940966796875 10.534ZM60.308515625 -6.02295654296875H74.25578076171875Q74.48452294921876 -6.02295654296875 74.64893139648439 -6.187364990234375Q74.81333984375 -6.3517734374999995 74.81333984375 -6.580515625V-20.099484375Q74.81333984375 -20.3282265625 74.64893139648439 -20.492635009765625Q74.48452294921876 -20.65704345703125 74.25578076171875 -20.65704345703125H60.308515625Q60.079773437499995 -20.65704345703125 59.91536499023437 -20.492635009765625Q59.75095654296875 -20.3282265625 59.75095654296875 -20.099484375V-6.580515625Q59.75095654296875 -6.3517734374999995 59.91536499023437 -6.187364990234375Q60.079773437499995 -6.02295654296875 60.308515625 -6.02295654296875Z M85.652 0.0V-26.68H91.67495654296876V0.0ZM85.652 -29.36533984375V-35.42H91.67495654296876V-29.36533984375Z" fill="#D4A074"/>
  <text x="152" y="103" font-family="Arial, Helvetica, sans-serif" font-size="13" letter-spacing="9.5" fill="#94A0B8">swarm</text>
</svg>
