<svg xmlns="http://www.w3.org/2000/svg" viewBox="0 0 256 256" role="img" aria-label="igigi-swarm icon">
  <title>igigi-swarm</title>
  <rect width="256" height="256" rx="56" fill="#0E1A38"/>
  <g transform="translate(26,40) scale(1.7)"><g stroke="#D4A074" stroke-opacity="0.45" stroke-width="1.4" stroke-linecap="round">
    <line x1="60" y1="52" x2="34" y2="30"/><line x1="60" y1="52" x2="86" y2="30"/>
    <line x1="60" y1="52" x2="34" y2="74"/><line x1="60" y1="52" x2="86" y2="74"/>
    <line x1="34" y1="30" x2="86" y2="30"/><line x1="34" y1="74" x2="86" y2="74"/></g>
  <g fill="#D4A074">
    <path transform="translate(34,30) rotate(40) scale(0.72)" d="M0 0 L-16 -5.5 L-11 0 L-16 5.5 Z"/>
    <path transform="translate(86,30) rotate(140) scale(0.72)" d="M0 0 L-16 -5.5 L-11 0 L-16 5.5 Z"/>
    <path transform="translate(86,74) rotate(220) scale(0.72)" d="M0 0 L-16 -5.5 L-11 0 L-16 5.5 Z"/>
    <path transform="translate(34,74) rotate(-40) scale(0.72)" d="M0 0 L-16 -5.5 L-11 0 L-16 5.5 Z"/></g>
  <circle cx="60" cy="52" r="5" fill="#B87654"/></g>
</svg>
