<svg xmlns="http://www.w3.org/2000/svg" viewBox="0 0 320 324" role="img" aria-label="igigi-swarm logo">
  <title>igigi-swarm</title>
  <desc>The igigi-swarm logo: an a2a-constellation mark above the wordmark igigi swarm. No font dependency (wordmark outlined).</desc>
  <rect width="320" height="324" rx="28" fill="#0E1A38"/>
  <g transform="translate(55,28) scale(1.75)"><g stroke="#D4A074" stroke-opacity="0.45" stroke-width="1.4" stroke-linecap="round">
    <line x1="60" y1="52" x2="34" y2="30"/><line x1="60" y1="52" x2="86" y2="30"/>
    <line x1="60" y1="52" x2="34" y2="74"/><line x1="60" y1="52" x2="86" y2="74"/>
    <line x1="34" y1="30" x2="86" y2="30"/><line x1="34" y1="74" x2="86" y2="74"/></g>
  <g fill="#D4A074">
    <path transform="translate(34,30) rotate(40) scale(0.72)" d="M0 0 L-16 -5.5 L-11 0 L-16 5.5 Z"/>
    <path transform="translate(86,30) rotate(140) scale(0.72)" d="M0 0 L-16 -5.5 L-11 0 L-16 5.5 Z"/>
    <path transform="translate(86,74) rotate(220) scale(0.72)" d="M0 0 L-16 -5.5 L-11 0 L-16 5.5 Z"/>
    <path transform="translate(34,74) rotate(-40) scale(0.72)" d="M0 0 L-16 -5.5 L-11 0 L-16 5.5 Z"/></g>
  <circle cx="60" cy="52" r="5" fill="#B87654"/></g>
  <path transform="translate(99.04,272)" d="M3.12 0.0V-34.8H10.9760302734375V0.0ZM3.12 -38.3026171875V-46.199999999999996H10.9760302734375V-38.3026171875Z M21.5797119140625 13.74V5.8239697265625H42.5553662109375Q42.8537255859375 5.8239697265625 43.068171386718745 5.60952392578125Q43.282617187499994 5.3950781249999995 43.282617187499994 5.09671875V0.0H24.0738134765625Q21.81186434659091 0.0 19.92690673828125 -1.1295648193359376Q18.04194912997159 -2.259129638671875 16.910974564985796 -4.141737670898437Q15.780000000000001 -6.024345703124999 15.780000000000001 -8.2524609375V-26.5475390625Q15.780000000000001 -28.791161499023435 16.91473388671875 -30.660846862792965Q18.0494677734375 -32.5305322265625 19.932075805664063 -33.66526611328125Q21.814683837890627 -34.8 24.0738134765625 -34.8H42.8861865234375Q45.19474570970857 -34.8 47.06196269860428 -33.66526611328125Q48.929179687499996 -32.5305322265625 50.033913574218744 -30.660846862792965Q51.1386474609375 -28.791161499023435 51.1386474609375 -26.5475390625V5.4688916015624995Q51.1386474609375 7.77395459784836 50.041756297144396 9.638343786020748Q48.94486513335129 11.502732974193135 47.05958344558189 12.621366487096568Q45.1743017578125 13.74 42.8861865234375 13.74ZM24.36328125 -7.8560302734375H42.5553662109375Q42.8537255859375 -7.8560302734375 43.068171386718745 -8.07047607421875Q43.282617187499994 -8.284921875 43.282617187499994 -8.583281249999999V-26.21671875Q43.282617187499994 -26.515078125 43.068171386718745 -26.72952392578125Q42.8537255859375 -26.9439697265625 42.5553662109375 -26.9439697265625H24.36328125Q24.064921875 -26.9439697265625 23.850476074218747 -26.72952392578125Q23.6360302734375 -26.515078125 23.6360302734375 -26.21671875V-8.583281249999999Q23.6360302734375 -8.284921875 23.850476074218747 -8.07047607421875Q24.064921875 -7.8560302734375 24.36328125 -7.8560302734375Z M57.419999999999995 0.0V-34.8H65.2760302734375V0.0ZM57.419999999999995 -38.3026171875V-46.199999999999996H65.2760302734375V-38.3026171875Z M75.87971191406251 13.74V5.8239697265625H96.8553662109375Q97.15372558593751 5.8239697265625 97.36817138671876 5.60952392578125Q97.5826171875 5.3950781249999995 97.5826171875 5.09671875V0.0H78.3738134765625Q76.11186434659092 0.0 74.22690673828126 -1.1295648193359376Q72.3419491299716 -2.259129638671875 71.2109745649858 -4.141737670898437Q70.08 -6.024345703124999 70.08 -8.2524609375V-26.5475390625Q70.08 -28.791161499023435 71.21473388671876 -30.660846862792965Q72.34946777343751 -32.5305322265625 74.23207580566407 -33.66526611328125Q76.11468383789062 -34.8 78.3738134765625 -34.8H97.1861865234375Q99.49474570970857 -34.8 101.36196269860429 -33.66526611328125Q103.2291796875 -32.5305322265625 104.33391357421874 -30.660846862792965Q105.4386474609375 -28.791161499023435 105.4386474609375 -26.5475390625V5.4688916015624995Q105.4386474609375 7.77395459784836 104.3417562971444 9.638343786020748Q103.2448651333513 11.502732974193135 101.3595834455819 12.621366487096568Q99.4743017578125 13.74 97.1861865234375 13.74ZM78.66328125000001 -7.8560302734375H96.8553662109375Q97.15372558593751 -7.8560302734375 97.36817138671876 -8.07047607421875Q97.5826171875 -8.284921875 97.5826171875 -8.583281249999999V-26.21671875Q97.5826171875 -26.515078125 97.36817138671876 -26.72952392578125Q97.15372558593751 -26.9439697265625 96.8553662109375 -26.9439697265625H78.66328125000001Q78.36492187500001 -26.9439697265625 78.15047607421876 -26.72952392578125Q77.93603027343751 -26.515078125 77.93603027343751 -26.21671875V-8.583281249999999Q77.93603027343751 -8.284921875 78.15047607421876 -8.07047607421875Q78.36492187500001 -7.8560302734375 78.66328125000001 -7.8560302734375Z M111.72 0.0V-34.8H119.5760302734375V0.0ZM111.72 -38.3026171875V-46.199999999999996H119.5760302734375V-38.3026171875Z" fill="#D4A074"/>
  <text x="160" y="304" text-anchor="middle" font-family="Arial, Helvetica, sans-serif" font-size="18" letter-spacing="14" fill="#94A0B8">swarm</text>
</svg>
